<?xml version="1.0" encoding="UTF-8" standalone="no"?>
<!-- Created with Inkscape (http://www.inkscape.org/) -->

<svg
   xmlns:dc="http://purl.org/dc/elements/1.1/"
   xmlns:cc="http://creativecommons.org/ns#"
   xmlns:rdf="http://www.w3.org/1999/02/22-rdf-syntax-ns#"
   xmlns:svg="http://www.w3.org/2000/svg"
   xmlns="http://www.w3.org/2000/svg"
   xmlns:sodipodi="http://sodipodi.sourceforge.net/DTD/sodipodi-0.dtd"
   xmlns:inkscape="http://www.inkscape.org/namespaces/inkscape"
   id="svg2"
   version="1.1"
   inkscape:version="0.91 r13725"
   xml:space="preserve"
   width="218.83749"
   height="56.912498"
   viewBox="0 0 218.83749 56.912498"
   sodipodi:docname="FLLJr.svg"><metadata
     id="metadata8"><rdf:RDF><cc:Work
         rdf:about=""><dc:format>image/svg+xml</dc:format><dc:type
           rdf:resource="http://purl.org/dc/dcmitype/StillImage" /><dc:title></dc:title></cc:Work></rdf:RDF></metadata><defs
     id="defs6" /><sodipodi:namedview
     pagecolor="#ffffff"
     bordercolor="#666666"
     borderopacity="1"
     objecttolerance="10"
     gridtolerance="10"
     guidetolerance="10"
     inkscape:pageopacity="0"
     inkscape:pageshadow="2"
     inkscape:window-width="640"
     inkscape:window-height="480"
     id="namedview4"
     showgrid="false"
     inkscape:zoom="1.6176387"
     inkscape:cx="109.41875"
     inkscape:cy="28.456249"
     inkscape:window-x="0"
     inkscape:window-y="0"
     inkscape:window-maximized="0"
     inkscape:current-layer="g10" /><g
     id="g10"
     inkscape:groupmode="layer"
     inkscape:label="ink_ext_XXXXXX"
     transform="matrix(1.25,0,0,-1.25,0,56.9125)"><g
       id="g12"
       transform="scale(0.1,0.1)"><path
         d="m 791.426,287.617 32.554,0 0,-96.953 58.282,0 0,-28.008 -90.836,0 0,124.961"
         style="fill:#00a650;fill-opacity:1;fill-rule:nonzero;stroke:none"
         id="path14"
         inkscape:connector-curvature="0" /><path
         d="m 887.859,287.617 99.586,0 0,-26.074 -67.031,0 0,-21.875 61.254,0 0,-25.215 -61.254,0 0,-23.789 68.785,0 0,-28.008 -101.34,0 0,124.961"
         style="fill:#00a650;fill-opacity:1;fill-rule:nonzero;stroke:none"
         id="path16"
         inkscape:connector-curvature="0" /><path
         d="m 1112.58,162.656 -21,0 -1.93,13.653 c -8.57,-12.09 -23.27,-16.289 -34.82,-16.289 -37.81,0 -62.31,28.886 -62.31,65.117 0,36.23 24.5,65.097 62.31,65.097 25.9,0 53.55,-13.828 56.53,-45.156 l -32.56,0 c -1.05,10.684 -11.55,17.168 -24.67,17.168 -21.01,0 -29.06,-18.555 -29.06,-37.109 0,-18.555 8.05,-37.11 29.06,-37.11 16.1,0 26.95,7.52 28.7,18.907 l -22.75,0 0,24.14 52.5,0 0,-68.418"
         style="fill:#00a650;fill-opacity:1;fill-rule:nonzero;stroke:none"
         id="path18"
         inkscape:connector-curvature="0" /><path
         d="m 1179.79,188.027 c 21,0 29.05,18.555 29.05,37.11 0,18.554 -8.05,37.109 -29.05,37.109 -21,0 -29.05,-18.555 -29.05,-37.109 0,-18.555 8.05,-37.11 29.05,-37.11 z m 0,102.207 c 39.38,0 61.61,-28.867 61.61,-65.097 0,-36.231 -22.23,-65.117 -61.61,-65.117 -39.38,0 -61.61,28.886 -61.61,65.117 0,36.23 22.23,65.097 61.61,65.097"
         style="fill:#00a650;fill-opacity:1;fill-rule:nonzero;stroke:none"
         id="path20"
         inkscape:connector-curvature="0" /><path
         d="m 791.426,127.598 32.554,0 0,-96.9535 58.282,0 0,-28.00778 -90.836,0 0,124.96128"
         style="fill:#00a650;fill-opacity:1;fill-rule:nonzero;stroke:none"
         id="path22"
         inkscape:connector-curvature="0" /><path
         d="m 887.859,127.598 99.586,0 0,-26.075 -67.031,0 0,-21.8746 61.254,0 0,-25.2148 -61.254,0 0,-23.7891 68.785,0 0,-28.00778 -101.34,0 0,124.96128"
         style="fill:#00a650;fill-opacity:1;fill-rule:nonzero;stroke:none"
         id="path24"
         inkscape:connector-curvature="0" /><path
         d="m 1033.3,49.1797 28.35,0 -13.82,43.7695 -0.35,0 -14.18,-43.7695 z m -2.1,78.4183 33.08,0 46.72,-124.96128 -33.95,0 -7.69,22.40238 -43.58,0 -7.88,-22.40238 -33.431,0 46.731,124.96128"
         style="fill:#00a650;fill-opacity:1;fill-rule:nonzero;stroke:none"
         id="path26"
         inkscape:connector-curvature="0" /><path
         d="m 1225.29,2.63672 -21,0 -1.92,13.65238 C 1193.79,4.19922 1179.09,0 1167.54,0 c -37.81,0 -62.31,28.8867 -62.31,65.1172 0,36.2308 24.5,65.0978 62.31,65.0978 25.9,0 53.55,-13.828 56.53,-45.1564 l -32.56,0 c -1.05,10.6836 -11.55,17.1684 -24.67,17.1684 -21.01,0 -29.06,-18.5551 -29.06,-37.1098 0,-18.5547 8.05,-37.1094 29.06,-37.1094 16.1,0 26.95,7.5195 28.7,18.9063 l -22.75,0 0,24.1406 52.5,0 0,-68.41798"
         style="fill:#00a650;fill-opacity:1;fill-rule:nonzero;stroke:none"
         id="path28"
         inkscape:connector-curvature="0" /><path
         d="M 1343.61,54.2578 C 1343.61,18.0273 1326.98,0 1289.17,0 c -37.8,0 -54.42,18.0273 -54.42,54.2578 l 0,73.3402 32.55,0 0,-75.2542 c 0,-16.1133 5.95,-24.336 21.87,-24.336 15.93,0 21.88,8.2227 21.88,24.336 l 0,75.2542 32.56,0 0,-73.3402"
         style="fill:#00a650;fill-opacity:1;fill-rule:nonzero;stroke:none"
         id="path30"
         inkscape:connector-curvature="0" /><path
         d="m 1354.81,127.598 99.58,0 0,-26.075 -67.03,0 0,-21.8746 61.26,0 0,-25.2148 -61.26,0 0,-23.7891 68.79,0 0,-28.00778 -101.34,0 0,124.96128"
         style="fill:#00a650;fill-opacity:1;fill-rule:nonzero;stroke:none"
         id="path32"
         inkscape:connector-curvature="0" /><path
         d="M 1590.03,42.1875 C 1590.03,14.1797 1575.68,0 1546.28,0 c -33.08,0 -43.76,19.082 -43.76,46.9141 l 0,5.4297 30.63,0 0,-11.5625 c 0,-8.2227 4.55,-12.7735 12.6,-12.7735 7.53,0 11.73,4.1992 11.73,16.2695 l 0,83.3207 32.55,0 0,-85.4105"
         style="fill:#00a650;fill-opacity:1;fill-rule:nonzero;stroke:none"
         id="path34"
         inkscape:connector-curvature="0" /><path
         d="m 1634.66,73.3398 27.3,0 c 9.8,0 15.05,5.254 15.05,14.7071 0,9.2773 -7.35,13.4761 -16.45,13.4761 l -25.9,0 0,-28.1832 z m -32.56,54.2582 63.71,0 c 22.05,0 43.75,-9.981 43.75,-35.1761 0,-13.4766 -6.47,-26.25 -19.6,-31.3281 l 0,-0.3516 c 13.31,-3.1641 17.15,-18.0274 18.2,-29.9414 0.35,-5.2344 0.88,-23.6133 5.26,-28.16408 l -32.21,0 c -2.8,4.19922 -3.33,16.44528 -3.67,19.94138 -0.88,12.5977 -2.98,25.5664 -18.2,25.5664 l -24.68,0 0,-45.50778 -32.56,0 0,124.96128"
         style="fill:#00a650;fill-opacity:1;fill-rule:nonzero;stroke:none"
         id="path36"
         inkscape:connector-curvature="0" /><path
         d="m 1718.14,2.63672 32.5508,0 0,32.5391 -32.5508,0 0,-32.5391 z"
         style="fill:#00a650;fill-opacity:1;fill-rule:nonzero;stroke:none"
         id="path38"
         inkscape:connector-curvature="0" /><path
         d="m 357.387,309.156 c 13.078,0 25.777,-1.195 37.902,-3.41 l 28.832,30.059 c -20.168,6.98 -42.808,10.894 -66.734,10.894 -40.688,0 -77.625,-11.336 -105.02,-29.808 L 277.5,293.078 c 23.238,10.188 50.582,16.078 79.887,16.078"
         style="fill:#959596;fill-opacity:1;fill-rule:nonzero;stroke:none"
         id="path40"
         inkscape:connector-curvature="0" /><path
         d="m 357.387,346.699 c 23.926,0 46.566,-3.914 66.734,-10.894 l 31.356,32.636 c -29.258,11.536 -62.625,18.086 -98.09,18.086 -52.86,0 -101.094,-14.543 -137.907,-38.484 l 32.887,-31.152 c 27.395,18.472 64.332,29.808 105.02,29.808"
         style="fill:#ffffff;fill-opacity:1;fill-rule:nonzero;stroke:none"
         id="path42"
         inkscape:connector-curvature="0" /><path
         d="m 206.832,218.984 c 2.637,10.774 7.504,20.996 14.219,30.442 l -12.633,12.765 c -2.5,-7.851 -3.887,-16.031 -3.887,-24.449 0,-6.394 0.801,-12.664 2.301,-18.758"
         style="fill:#959596;fill-opacity:1;fill-rule:nonzero;stroke:none"
         id="path44"
         inkscape:connector-curvature="0" /><path
         d="m 113.496,148.34 -5.305,-27.481 52.766,22.715 c -3.328,7.004 -3.984,16.133 -5.91,23.555 L 113.496,148.34"
         style="fill:#959596;fill-opacity:1;fill-rule:nonzero;stroke:none"
         id="path46"
         inkscape:connector-curvature="0" /><path
         d="M 76.3672,447.324 0,29.1523 36.1172,26.2109 111.734,450.465 76.3672,447.324"
         style="fill:#959596;fill-opacity:1;fill-rule:nonzero;stroke:none"
         id="path48"
         inkscape:connector-curvature="0" /><path
         d="m 333.16,206.691 0,33.805 -55.465,52.582 -25.121,23.813 -32.898,31.152 L 111.605,450.469 35.9648,26.2109 196.016,96.5625 C 180.082,110.645 168.789,125.656 160.398,143.34 l -52.097,-22.363 5.222,27.351 33.762,175.969 2.817,14.762 27.875,-28.067 35.871,-36.121 15.39,-15.516 63.309,-54.531 -61.449,-28.172 c 15.961,-15.949 34.867,-29.98 60.351,-37.922 l 76.676,34.434 -34.965,33.527"
         style="fill:#ed1c24;fill-opacity:1;fill-rule:nonzero;stroke:none"
         id="path50"
         inkscape:connector-curvature="0" /><path
         d="m 507.934,218.984 c 1.488,6.094 2.308,12.364 2.308,18.758 0,18.899 -6.906,36.715 -18.793,52.211 l -18.203,-18.859 c 17.484,-14.551 29.902,-32.461 34.688,-52.11"
         style="fill:#959596;fill-opacity:1;fill-rule:nonzero;stroke:none"
         id="path52"
         inkscape:connector-curvature="0" /><path
         d="M 542.156,40 499.012,81.4453 C 492.113,76.7305 484.734,72.3633 477.02,68.3516 L 542.156,5.8125 743.023,215.02 742.801,248.906 542.156,40"
         style="fill:#959596;fill-opacity:1;fill-rule:nonzero;stroke:none"
         id="path54"
         inkscape:connector-curvature="0" /><path
         d="m 395.785,180.508 -35.531,34.121 -27.188,25.969 -0.097,-33.907 38.226,-36.718 36.539,-35.102 c 9.286,2.309 18.168,5.238 26.52,8.703 l -38.469,36.934"
         style="fill:#959596;fill-opacity:1;fill-rule:nonzero;stroke:none"
         id="path56"
         inkscape:connector-curvature="0" /><path
         d="m 535.449,369.711 -28.594,-29.77 -31.539,-32.867 -21.503,-22.386 -40.747,-42.43 17.071,-16.391 43.347,45.149 18.133,18.879 33.211,34.578 10.621,11.062 110.453,-105.875 17.09,17.735 -127.543,122.316"
         style="fill:#959596;fill-opacity:1;fill-rule:nonzero;stroke:none"
         id="path58"
         inkscape:connector-curvature="0" /><path
         d="m 524.828,324.473 -33.211,-34.578 c 11.879,-15.489 18.625,-33.254 18.625,-52.153 0,-6.394 -0.82,-12.664 -2.308,-18.758 -3.875,-15.898 -12.586,-30.617 -25.012,-43.359 -12.723,-13.047 -29.336,-24.012 -48.668,-32.051 -8.352,-3.465 -17.234,-6.394 -26.52,-8.703 -15.757,-3.902 -32.699,-6.07 -50.347,-6.07 -21.735,0 -42.383,3.242 -61.098,9.07 -25.492,7.942 -47.355,20.695 -63.324,36.641 -5.832,5.812 -10.867,12.062 -15.02,18.652 -5.117,8.137 -8.902,16.777 -11.113,25.82 -1.5,6.094 -2.301,12.364 -2.301,18.758 0,8.418 1.387,16.598 3.887,24.449 l -38.141,38.61 c -13.968,-20.703 -21.851,-44.043 -21.851,-68.77 0,-6.355 0.594,-12.625 1.597,-18.769 2.446,-14.942 7.809,-29.207 15.602,-42.52 3.906,-6.687 8.445,-13.125 13.555,-19.289 13.422,-16.187 30.722,-30.398 51,-41.922 35.215,-20.0388 79.312,-31.9919 127.207,-31.9919 33.511,0 65.148,5.8398 93.203,16.2031 8.515,3.1445 16.683,6.7068 24.5,10.6528 18.082,9.152 34.133,20.332 47.527,33.125 22.477,21.464 37.485,47.414 42.129,75.742 1.012,6.144 1.586,12.414 1.586,18.769 0,34.672 -15.43,66.664 -41.504,92.442"
         style="fill:#ffffff;fill-opacity:1;fill-rule:nonzero;stroke:none"
         id="path60"
         inkscape:connector-curvature="0" /><path
         d="m 395.605,180.254 38.34,-36.816 c 19.301,8.046 36.059,18.898 48.797,31.933 l -52.562,50.469 -17.067,16.387 40.524,42.203 21.484,22.386 31.555,32.875 28.601,29.774 L 662.508,247.301 645.434,229.512 541.195,120.969 C 530.215,105.93 515.977,92.5781 499.141,81.0547 L 541.973,39.7266 742.84,248.926 533.641,449.785 l -78.348,-81.59 -31.352,-32.66 -28.859,-30.047 -62.016,-64.89 62.539,-60.344"
         style="fill:#1c63b7;fill-opacity:1;fill-rule:nonzero;stroke:none"
         id="path62"
         inkscape:connector-curvature="0" /><path
         d="m 218.809,192.141 c 0,0 1,-1.653 1.117,-1.848 3.066,-4.871 7.285,-9.336 11.273,-13.801 l 62.492,28.891 -143.609,133.734 -3.914,-20.687 112.664,-111.555 -40.023,-14.734"
         style="fill:#959596;fill-opacity:1;fill-rule:nonzero;stroke:none"
         id="path64"
         inkscape:connector-curvature="0" /><path
         d="m 566.332,232.031 c 0,-6.355 -0.574,-12.625 -1.586,-18.769 -4.644,-28.328 -19.652,-54.278 -42.129,-75.742 -13.394,-12.793 -29.445,-23.973 -47.527,-33.125 -7.817,-3.946 -15.985,-7.5083 -24.5,-10.6528 -28.055,-10.3633 -59.692,-16.2031 -93.203,-16.2031 -47.895,0 -91.992,11.9531 -127.207,31.9919 -20.278,11.524 -37.578,25.735 -51,41.922 -5.11,6.164 -9.649,12.602 -13.555,19.289 -7.793,13.313 -13.156,27.578 -15.602,42.52 -1.003,6.144 -1.597,12.414 -1.597,18.769 0,2.004 0.16,3.985 0.254,5.949 -0.02,0.106 -0.059,0.254 -0.067,0.348 -1.019,-6.148 -0.187,-37.488 -0.187,-43.855 0,-10.067 1.347,-19.91 3.844,-29.442 1.945,-7.453 4.605,-14.687 7.933,-21.691 8.391,-17.684 20.977,-33.906 36.922,-47.9884 C 235.473,61.5234 293.027,40 357.387,40 c 44.664,0 86.008,10.3906 119.972,28.0273 7.715,4.004 15.051,8.3907 21.942,13.0938 16.84,11.5352 31.097,25.0629 42.078,40.1089 15.91,21.778 24.953,46.731 24.953,73.243 0,5.597 0.484,32.101 -0.055,42.636 -0.097,1.438 0.055,-3.25 0.055,-5.078"
         style="fill:#959596;fill-opacity:1;fill-rule:nonzero;stroke:none"
         id="path66"
         inkscape:connector-curvature="0" /><path
         d="m 1250.7,270.883 c 0.99,0 1.54,0.469 1.54,1.367 0,0.871 -0.5,1.348 -1.51,1.348 -0.21,0 -0.25,0 -0.46,-0.039 l 0,-2.637 c 0.16,-0.039 0.25,-0.039 0.43,-0.039 z m -4.01,5.351 c 0.56,0.039 0.64,0.071 1.76,0.157 1.14,0.089 1.61,0.136 2.07,0.136 3.67,0 5.48,-1.425 5.48,-4.14 0,-1.641 -0.69,-2.617 -2.15,-3.184 l -0.18,-0.058 c 0.12,-0.079 0.18,-0.118 0.22,-0.215 0.38,-0.332 1.67,-2.266 2.75,-4.043 l -4.18,0 c -0.85,1.593 -1.11,2.031 -2.19,3.828 l 0,-3.828 -3.58,0 0,11.347 z m 4.32,-15.488 c 5.43,0 9.77,4.356 9.77,9.738 0,5.438 -4.34,9.793 -9.77,9.793 -5.39,0 -9.76,-4.355 -9.76,-9.746 0,-5.468 4.32,-9.785 9.76,-9.785 z m 0,20.918 c 6.16,0 11.16,-4.969 11.16,-11.133 0,-6.199 -4.96,-11.16 -11.16,-11.16 -6.26,0 -11.14,4.871 -11.14,11.16 0,6.203 4.93,11.133 11.14,11.133"
         style="fill:#00a650;fill-opacity:1;fill-rule:nonzero;stroke:none"
         id="path68"
         inkscape:connector-curvature="0" /><path
         d="m 820.09,452.789 88.48,0 -8.332,-34.074 -42.41,0 -4.191,-17.902 44.242,0 -7.703,-31.567 -43.668,0 -10.485,-44.851 -45.71,0 29.777,128.394"
         style="fill:#231f20;fill-opacity:1;fill-rule:nonzero;stroke:none"
         id="path70"
         inkscape:connector-curvature="0" /><path
         d="m 920.598,452.789 45.711,0 -29.774,-128.394 -45.711,0 29.774,128.394"
         style="fill:#231f20;fill-opacity:1;fill-rule:nonzero;stroke:none"
         id="path72"
         inkscape:connector-curvature="0" /><path
         d="m 1012.02,391.57 c 14.68,0 24.96,8.668 24.96,20.985 0,6.547 -4.83,9.816 -14.26,9.816 -2.73,0 -4.2,-0.191 -7.13,-0.769 l -6.92,-29.641 c 1.47,-0.195 1.68,-0.391 3.35,-0.391 z m -33.754,60.446 2.937,0.386 c 14.676,1.735 32.917,2.887 42.987,2.887 16.77,0 29.77,-1.926 39.62,-5.965 12.58,-5.199 20.13,-16.554 20.13,-30.222 0,-11.743 -3.98,-22.907 -11.53,-31.571 -6.5,-7.508 -12.37,-11.164 -24.53,-14.82 l -2.94,-0.965 c 1.26,-0.961 1.68,-1.348 2.31,-1.926 3.56,-4.043 14.26,-24.832 23.27,-45.425 l -50.32,0 c -6.5,18.285 -8.39,23.097 -16.98,43.886 l -10.068,-43.886 -44.449,0 29.563,127.621"
         style="fill:#231f20;fill-opacity:1;fill-rule:nonzero;stroke:none"
         id="path74"
         inkscape:connector-curvature="0" /><path
         d="m 1192.45,452.789 110.91,0 -7.75,-37.168 -32.92,0 -21.8,-91.226 -45.71,0 21.81,91.226 -35.68,0 11.14,37.168"
         style="fill:#231f20;fill-opacity:1;fill-rule:nonzero;stroke:none"
         id="path76"
         inkscape:connector-curvature="0" /><path
         d="m 1261.98,336.555 c 0.99,0 1.55,0.476 1.55,1.383 0,0.863 -0.52,1.335 -1.51,1.335 -0.21,0 -0.26,0 -0.47,-0.043 l 0,-2.628 c 0.17,-0.047 0.26,-0.047 0.43,-0.047 z m -4.01,5.347 c 0.56,0.043 0.65,0.082 1.77,0.172 1.12,0.086 1.59,0.129 2.07,0.129 3.66,0 5.47,-1.422 5.47,-4.137 0,-1.636 -0.69,-2.628 -2.16,-3.191 l -0.17,-0.043 c 0.13,-0.086 0.17,-0.129 0.22,-0.215 0.38,-0.344 1.68,-2.285 2.76,-4.051 l -4.18,0 c -0.87,1.594 -1.13,2.028 -2.2,3.836 l 0,-3.836 -3.58,0 0,11.336 z m 4.31,-15.472 c 5.43,0 9.78,4.351 9.78,9.738 0,5.43 -4.35,9.785 -9.78,9.785 -5.39,0 -9.74,-4.355 -9.74,-9.742 0,-5.473 4.31,-9.781 9.74,-9.781 z m 0,20.902 c 6.16,0 11.16,-4.961 11.16,-11.121 0,-6.203 -4.95,-11.16 -11.16,-11.16 -6.25,0 -11.12,4.871 -11.12,11.16 0,6.207 4.91,11.121 11.12,11.121"
         style="fill:#231f20;fill-opacity:1;fill-rule:nonzero;stroke:none"
         id="path78"
         inkscape:connector-curvature="0" /><path
         d="m 1075.02,327.656 c 12.85,-3.816 26.91,-5.957 40.04,-5.957 17.82,0 31.45,4.039 43.19,12.512 13,9.238 21.38,23.48 21.38,36.379 0,8.664 -3.77,16.555 -10.48,22.14 -5.24,4.231 -10.69,7.508 -21.81,12.704 l -9.01,4.234 c -2.94,1.539 -4.4,3.078 -4.4,4.812 0,4.622 5.87,8.083 13.83,8.083 5.97,0 13.07,-1.731 26.65,-6.172 l 9.37,34.757 c -10.16,2.758 -20.05,4.141 -29.94,4.141 -37.32,0 -66.04,-20.402 -66.04,-46.777 0,-13.856 9.22,-23.676 32.29,-34.457 10.9,-5 12.79,-6.352 12.79,-9.817 0,-5.195 -5.66,-8.468 -14.89,-8.468 -8.18,0 -18.66,2.503 -32.92,7.699 l -0.02,-0.004 -10.03,-35.809"
         style="fill:#231f20;fill-opacity:1;fill-rule:nonzero;stroke:none"
         id="path80"
         inkscape:connector-curvature="0" /></g></g></svg>