<?xml version="1.0" encoding="UTF-8" standalone="no"?>
<!-- Created with Inkscape (http://www.inkscape.org/) -->

<svg
   xmlns:dc="http://purl.org/dc/elements/1.1/"
   xmlns:cc="http://creativecommons.org/ns#"
   xmlns:rdf="http://www.w3.org/1999/02/22-rdf-syntax-ns#"
   xmlns:svg="http://www.w3.org/2000/svg"
   xmlns="http://www.w3.org/2000/svg"
   xmlns:sodipodi="http://sodipodi.sourceforge.net/DTD/sodipodi-0.dtd"
   xmlns:inkscape="http://www.inkscape.org/namespaces/inkscape"
   id="svg2"
   version="1.1"
   inkscape:version="0.91 r13725"
   xml:space="preserve"
   width="241.28751"
   height="56.912498"
   viewBox="0 0 241.28751 56.912498"
   sodipodi:docname="FRC.svg"><metadata
     id="metadata8"><rdf:RDF><cc:Work
         rdf:about=""><dc:format>image/svg+xml</dc:format><dc:type
           rdf:resource="http://purl.org/dc/dcmitype/StillImage" /><dc:title></dc:title></cc:Work></rdf:RDF></metadata><defs
     id="defs6" /><sodipodi:namedview
     pagecolor="#ffffff"
     bordercolor="#666666"
     borderopacity="1"
     objecttolerance="10"
     gridtolerance="10"
     guidetolerance="10"
     inkscape:pageopacity="0"
     inkscape:pageshadow="2"
     inkscape:window-width="640"
     inkscape:window-height="480"
     id="namedview4"
     showgrid="false"
     inkscape:zoom="1.4671294"
     inkscape:cx="120.64375"
     inkscape:cy="28.456249"
     inkscape:window-x="0"
     inkscape:window-y="0"
     inkscape:window-maximized="0"
     inkscape:current-layer="g10" /><g
     id="g10"
     inkscape:groupmode="layer"
     inkscape:label="ink_ext_XXXXXX"
     transform="matrix(1.25,0,0,-1.25,0,56.9125)"><g
       id="g12"
       transform="scale(0.1,0.1)"><path
         d="m 812.469,233.359 27.304,0 c 9.805,0 15.063,5.254 15.063,14.707 0,9.278 -7.348,13.477 -16.449,13.477 l -25.918,0 0,-28.184 z m -32.539,54.258 63.711,0 c 22.05,0 43.75,-9.98 43.75,-35.176 0,-13.476 -6.485,-26.25 -19.61,-31.328 l 0,-0.351 c 13.305,-3.164 17.149,-18.028 18.203,-29.942 0.352,-5.234 0.879,-23.613 5.254,-28.164 l -32.207,0 c -2.793,4.199 -3.32,16.446 -3.672,19.942 -0.879,12.597 -2.968,25.566 -18.203,25.566 l -24.687,0 0,-45.508 -32.539,0 0,124.961"
         style="fill:#009ad7;fill-opacity:1;fill-rule:nonzero;stroke:none"
         id="path14"
         inkscape:connector-curvature="0" /><path
         d="m 952.668,188.027 c 20.992,0 29.059,18.555 29.059,37.11 0,18.554 -8.067,37.109 -29.059,37.109 -21,0 -29.047,-18.555 -29.047,-37.109 0,-18.555 8.047,-37.11 29.047,-37.11 z m 0,102.207 c 39.375,0 61.602,-28.867 61.602,-65.097 0,-36.231 -22.227,-65.117 -61.602,-65.117 -39.375,0 -61.605,28.886 -61.605,65.117 0,36.23 22.23,65.097 61.605,65.097"
         style="fill:#009ad7;fill-opacity:1;fill-rule:nonzero;stroke:none"
         id="path16"
         inkscape:connector-curvature="0" /><path
         d="m 1053.99,188.73 26.1,0 c 10.31,0 17.5,3.672 17.5,14.004 0,11.016 -7.72,14.707 -17.5,14.707 l -26.1,0 0,-28.711 z m 0,49.708 25.22,0 c 5.6,0 13.3,2.968 13.3,11.894 0,9.102 -6.49,12.07 -13.3,12.07 l -25.22,0 0,-23.964 z m -32.54,49.179 58.46,0 c 21.52,0.352 45.16,-5.254 45.16,-31.328 0,-11.211 -6.66,-20.312 -16.47,-25.215 13.3,-3.847 21.53,-15.39 21.53,-29.57 0,-29.746 -21.88,-38.848 -48.66,-38.848 l -60.02,0 0,124.961"
         style="fill:#009ad7;fill-opacity:1;fill-rule:nonzero;stroke:none"
         id="path18"
         inkscape:connector-curvature="0" /><path
         d="m 1194.19,188.027 c 20.99,0 29.06,18.555 29.06,37.11 0,18.554 -8.07,37.109 -29.06,37.109 -21,0 -29.04,-18.555 -29.04,-37.109 0,-18.555 8.04,-37.11 29.04,-37.11 z m 0,102.207 c 39.37,0 61.6,-28.867 61.6,-65.097 0,-36.231 -22.23,-65.117 -61.6,-65.117 -39.38,0 -61.6,28.886 -61.6,65.117 0,36.23 22.22,65.097 61.6,65.097"
         style="fill:#009ad7;fill-opacity:1;fill-rule:nonzero;stroke:none"
         id="path20"
         inkscape:connector-curvature="0" /><path
         d="m 1358.71,259.609 -37.29,0 0,-96.953 -32.55,0 0,96.953 -37.27,0 0,28.008 107.11,0 0,-28.008"
         style="fill:#009ad7;fill-opacity:1;fill-rule:nonzero;stroke:none"
         id="path22"
         inkscape:connector-curvature="0" /><path
         d="m 1365.89,162.656 32.5391,0 0,124.961 -32.5391,0 0,-124.961 z"
         style="fill:#009ad7;fill-opacity:1;fill-rule:nonzero;stroke:none"
         id="path24"
         inkscape:connector-curvature="0" /><path
         d="m 1493.47,242.988 c -1.74,12.598 -11.55,19.258 -25.2,19.258 -21,0 -29.06,-18.555 -29.06,-37.109 0,-18.555 8.06,-37.11 29.06,-37.11 15.22,0 23.98,8.75 25.2,23.106 l 32.55,0 c -1.75,-32.207 -25.37,-51.113 -57.05,-51.113 -37.81,0 -62.3,28.886 -62.3,65.117 0,36.23 24.49,65.097 62.3,65.097 26.96,0 56.18,-17.148 57.05,-47.246 l -32.55,0"
         style="fill:#009ad7;fill-opacity:1;fill-rule:nonzero;stroke:none"
         id="path26"
         inkscape:connector-curvature="0" /><path
         d="m 1558.23,204.648 c 0.69,-14.687 9.79,-19.414 23.61,-19.414 9.81,0 19.97,3.496 19.97,12.774 0,11.015 -17.86,13.125 -35.88,18.203 -17.85,5.078 -36.59,13.125 -36.59,36.055 0,27.304 27.49,37.968 50.94,37.968 24.85,0 49.89,-12.07 50.04,-40.254 l -32.54,0 c 0.53,11.387 -10.15,15.059 -20.13,15.059 -7,0 -15.75,-2.461 -15.75,-10.684 0,-9.628 18.03,-11.367 36.23,-16.445 18.03,-5.078 36.23,-13.476 36.23,-36.055 0,-31.679 -26.95,-41.835 -54.43,-41.835 -28.71,0 -54.08,12.617 -54.26,44.628 l 32.56,0"
         style="fill:#009ad7;fill-opacity:1;fill-rule:nonzero;stroke:none"
         id="path28"
         inkscape:connector-curvature="0" /><path
         d="m 866.727,82.9688 c -1.739,12.5976 -11.543,19.2582 -25.196,19.2582 -20.996,0 -29.062,-18.5551 -29.062,-37.1098 0,-18.5547 8.066,-37.1094 29.062,-37.1094 15.215,0 23.985,8.75 25.196,23.1055 l 32.558,0 C 897.527,18.9063 873.918,0 842.234,0 804.422,0 779.93,28.8867 779.93,65.1172 c 0,36.2308 24.492,65.0978 62.304,65.0978 26.954,0 56.172,-17.149 57.051,-47.2462 l -32.558,0"
         style="fill:#009ad7;fill-opacity:1;fill-rule:nonzero;stroke:none"
         id="path30"
         inkscape:connector-curvature="0" /><path
         d="m 962.996,28.0078 c 20.996,0 29.047,18.5547 29.047,37.1094 0,18.5547 -8.051,37.1098 -29.047,37.1098 -21.016,0 -29.062,-18.5551 -29.062,-37.1098 0,-18.5547 8.046,-37.1094 29.062,-37.1094 z m 0,102.2072 c 39.374,0 61.604,-28.867 61.604,-65.0978 C 1024.6,28.8867 1002.37,0 962.996,0 c -39.394,0 -61.617,28.8867 -61.617,65.1172 0,36.2308 22.223,65.0978 61.617,65.0978"
         style="fill:#009ad7;fill-opacity:1;fill-rule:nonzero;stroke:none"
         id="path32"
         inkscape:connector-curvature="0" /><path
         d="m 1028.61,127.598 47.97,0 21.52,-83.3207 0.36,0 21.52,83.3207 47.95,0 0,-124.96128 -30.63,0 0,94.86328 -0.35,0 -26.25,-94.86328 -24.86,0 -26.25,94.86328 -0.35,0 0,-94.86328 -30.63,0 0,124.96128"
         style="fill:#009ad7;fill-opacity:1;fill-rule:nonzero;stroke:none"
         id="path34"
         inkscape:connector-curvature="0" /><path
         d="m 1212.56,69.4922 21.87,0 c 10.16,0 17.5,4.1992 17.5,15.5664 0,11.7383 -7.52,16.4644 -17.5,16.4644 l -21.87,0 0,-32.0308 z m -32.56,58.1058 59.33,0 c 23.29,0 45.16,-10.684 45.16,-40.2542 0,-30.9766 -17.67,-43.0665 -45.16,-43.0665 l -26.77,0 0,-41.64058 -32.56,0 0,124.96128"
         style="fill:#009ad7;fill-opacity:1;fill-rule:nonzero;stroke:none"
         id="path36"
         inkscape:connector-curvature="0" /><path
         d="m 1290.22,127.598 99.59,0 0,-26.075 -67.03,0 0,-21.8746 61.25,0 0,-25.2148 -61.25,0 0,-23.7891 68.79,0 0,-28.00778 -101.35,0 0,124.96128"
         style="fill:#009ad7;fill-opacity:1;fill-rule:nonzero;stroke:none"
         id="path38"
         inkscape:connector-curvature="0" /><path
         d="m 1501.18,99.5898 -37.28,0 0,-96.95308 -32.56,0 0,96.95308 -37.27,0 0,28.0082 107.11,0 0,-28.0082"
         style="fill:#009ad7;fill-opacity:1;fill-rule:nonzero;stroke:none"
         id="path40"
         inkscape:connector-curvature="0" /><path
         d="m 1505.03,2.63672 32.5391,0 0,124.961 -32.5391,0 0,-124.961 z"
         style="fill:#009ad7;fill-opacity:1;fill-rule:nonzero;stroke:none"
         id="path42"
         inkscape:connector-curvature="0" /><path
         d="m 1648.72,99.5898 -37.29,0 0,-96.95308 -32.55,0 0,96.95308 -37.27,0 0,28.0082 107.11,0 0,-28.0082"
         style="fill:#009ad7;fill-opacity:1;fill-rule:nonzero;stroke:none"
         id="path44"
         inkscape:connector-curvature="0" /><path
         d="m 1652.57,2.63672 32.5391,0 0,124.961 -32.5391,0 0,-124.961 z"
         style="fill:#009ad7;fill-opacity:1;fill-rule:nonzero;stroke:none"
         id="path46"
         inkscape:connector-curvature="0" /><path
         d="m 1754.07,28.0078 c 21,0 29.06,18.5547 29.06,37.1094 0,18.5547 -8.06,37.1098 -29.06,37.1098 -20.99,0 -29.04,-18.5551 -29.04,-37.1098 0,-18.5547 8.05,-37.1094 29.04,-37.1094 z m 0,102.2072 c 39.38,0 61.6,-28.867 61.6,-65.0978 C 1815.67,28.8867 1793.45,0 1754.07,0 c -39.37,0 -61.6,28.8867 -61.6,65.1172 0,36.2308 22.23,65.0978 61.6,65.0978"
         style="fill:#009ad7;fill-opacity:1;fill-rule:nonzero;stroke:none"
         id="path48"
         inkscape:connector-curvature="0" /><path
         d="m 1822.49,127.598 33.44,0 43.4,-77.0121 0.35,0 0,77.0121 30.62,0 0,-124.96128 -33.42,0 -43.41,77.87108 -0.36,0 0,-77.87108 -30.62,0 0,124.96128"
         style="fill:#009ad7;fill-opacity:1;fill-rule:nonzero;stroke:none"
         id="path50"
         inkscape:connector-curvature="0" /><path
         d="m 357.383,309.156 c 13.086,0 25.781,-1.195 37.91,-3.41 l 28.828,30.059 c -20.168,6.98 -42.812,10.894 -66.738,10.894 -40.684,0 -77.629,-11.336 -105.012,-29.808 L 277.5,293.078 c 23.23,10.188 50.574,16.078 79.883,16.078"
         style="fill:#959596;fill-opacity:1;fill-rule:nonzero;stroke:none"
         id="path52"
         inkscape:connector-curvature="0" /><path
         d="m 357.383,346.699 c 23.926,0 46.57,-3.914 66.738,-10.894 l 31.356,32.636 c -29.258,11.536 -62.625,18.086 -98.094,18.086 -52.863,0 -101.086,-14.543 -137.903,-38.484 l 32.891,-31.152 c 27.383,18.472 64.328,29.808 105.012,29.808"
         style="fill:#ffffff;fill-opacity:1;fill-rule:nonzero;stroke:none"
         id="path54"
         inkscape:connector-curvature="0" /><path
         d="m 206.824,218.984 c 2.637,10.774 7.512,20.996 14.219,30.442 l -12.625,12.765 c -2.5,-7.851 -3.887,-16.031 -3.887,-24.449 0,-6.394 0.801,-12.664 2.293,-18.758"
         style="fill:#959596;fill-opacity:1;fill-rule:nonzero;stroke:none"
         id="path56"
         inkscape:connector-curvature="0" /><path
         d="m 113.496,148.34 -5.305,-27.481 52.766,22.715 c -3.328,7.004 -3.984,16.133 -5.91,23.555 L 113.496,148.34"
         style="fill:#959596;fill-opacity:1;fill-rule:nonzero;stroke:none"
         id="path58"
         inkscape:connector-curvature="0" /><path
         d="M 76.3672,447.324 0,29.1523 36.1211,26.2109 111.727,450.465 76.3672,447.324"
         style="fill:#959596;fill-opacity:1;fill-rule:nonzero;stroke:none"
         id="path60"
         inkscape:connector-curvature="0" /><path
         d="m 333.164,206.691 0,33.805 -55.469,52.582 -25.129,23.813 -32.89,31.152 L 111.609,450.469 35.9648,26.2109 196.016,96.5625 c -15.93,14.0825 -27.227,29.0935 -35.618,46.7775 l -52.097,-22.363 5.222,27.351 33.762,175.969 2.82,14.762 27.872,-28.067 35.871,-36.121 15.39,-15.516 63.309,-54.531 -61.445,-28.172 c 15.957,-15.949 34.863,-29.98 60.351,-37.922 l 76.672,34.434 -34.961,33.527"
         style="fill:#ed1c24;fill-opacity:1;fill-rule:nonzero;stroke:none"
         id="path62"
         inkscape:connector-curvature="0" /><path
         d="m 507.93,218.984 c 1.492,6.094 2.312,12.364 2.312,18.758 0,18.899 -6.902,36.715 -18.797,52.211 l -18.203,-18.859 c 17.488,-14.551 29.903,-32.461 34.688,-52.11"
         style="fill:#959596;fill-opacity:1;fill-rule:nonzero;stroke:none"
         id="path64"
         inkscape:connector-curvature="0" /><path
         d="M 542.156,40 499.012,81.4453 C 492.109,76.7305 484.734,72.3633 477.02,68.3516 L 542.156,5.8125 743.027,215.02 742.801,248.906 542.156,40"
         style="fill:#959596;fill-opacity:1;fill-rule:nonzero;stroke:none"
         id="path66"
         inkscape:connector-curvature="0" /><path
         d="m 395.781,180.508 -35.527,34.121 -27.188,25.969 -0.097,-33.907 38.222,-36.718 36.543,-35.102 c 9.286,2.309 18.164,5.238 26.524,8.703 l -38.477,36.934"
         style="fill:#959596;fill-opacity:1;fill-rule:nonzero;stroke:none"
         id="path68"
         inkscape:connector-curvature="0" /><path
         d="m 535.449,369.711 -28.594,-29.77 -31.542,-32.867 -21.504,-22.386 -40.743,-42.43 17.071,-16.391 43.347,45.149 18.137,18.879 33.203,34.578 10.625,11.062 110.449,-105.875 17.09,17.735 -127.539,122.316"
         style="fill:#959596;fill-opacity:1;fill-rule:nonzero;stroke:none"
         id="path70"
         inkscape:connector-curvature="0" /><path
         d="m 524.824,324.473 -33.203,-34.578 c 11.875,-15.489 18.621,-33.254 18.621,-52.153 0,-6.394 -0.82,-12.664 -2.312,-18.758 -3.867,-15.898 -12.578,-30.617 -25.012,-43.359 -12.723,-13.047 -29.332,-24.012 -48.66,-32.051 -8.36,-3.465 -17.238,-6.394 -26.524,-8.703 -15.761,-3.902 -32.695,-6.07 -50.351,-6.07 -21.731,0 -42.375,3.242 -61.094,9.07 -25.5,7.942 -47.355,20.695 -63.328,36.641 -5.824,5.812 -10.863,12.062 -15.023,18.652 -5.118,8.137 -8.895,16.777 -11.114,25.82 -1.492,6.094 -2.293,12.364 -2.293,18.758 0,8.418 1.387,16.598 3.887,24.449 l -38.137,38.61 c -13.972,-20.703 -21.855,-44.043 -21.855,-68.77 0,-6.355 0.586,-12.625 1.601,-18.769 2.442,-14.942 7.805,-29.207 15.598,-42.52 3.906,-6.687 8.445,-13.125 13.555,-19.289 13.425,-16.187 30.722,-30.398 51.004,-41.922 35.214,-20.0388 79.308,-31.9919 127.199,-31.9919 33.515,0 65.156,5.8398 93.203,16.2031 8.516,3.1445 16.687,6.7068 24.5,10.6528 18.086,9.152 34.133,20.332 47.531,33.125 22.481,21.464 37.481,47.414 42.129,75.742 1.016,6.144 1.582,12.414 1.582,18.769 0,34.672 -15.43,66.664 -41.504,92.442"
         style="fill:#ffffff;fill-opacity:1;fill-rule:nonzero;stroke:none"
         id="path72"
         inkscape:connector-curvature="0" /><path
         d="m 395.605,180.254 38.34,-36.816 c 19.297,8.046 36.055,18.898 48.797,31.933 l -52.566,50.469 -17.063,16.387 40.52,42.203 21.484,22.386 31.563,32.875 28.593,29.774 L 662.508,247.301 645.43,229.512 541.191,120.969 C 530.215,105.93 515.977,92.5781 499.141,81.0547 L 541.973,39.7266 742.84,248.926 533.641,449.785 l -78.348,-81.59 -31.348,-32.66 -28.867,-30.047 -62.012,-64.89 62.539,-60.344"
         style="fill:#1c63b7;fill-opacity:1;fill-rule:nonzero;stroke:none"
         id="path74"
         inkscape:connector-curvature="0" /><path
         d="m 218.809,192.141 c 0,0 1.004,-1.653 1.121,-1.848 3.066,-4.871 7.285,-9.336 11.269,-13.801 L 293.691,205.383 150.086,339.117 146.16,318.43 258.836,206.875 218.809,192.141"
         style="fill:#959596;fill-opacity:1;fill-rule:nonzero;stroke:none"
         id="path76"
         inkscape:connector-curvature="0" /><path
         d="m 566.328,232.031 c 0,-6.355 -0.566,-12.625 -1.582,-18.769 -4.648,-28.328 -19.648,-54.278 -42.129,-75.742 -13.398,-12.793 -29.445,-23.973 -47.531,-33.125 -7.813,-3.946 -15.984,-7.5083 -24.5,-10.6528 -28.047,-10.3633 -59.688,-16.2031 -93.203,-16.2031 -47.891,0 -91.985,11.9531 -127.199,31.9919 -20.282,11.524 -37.579,25.735 -51.004,41.922 -5.11,6.164 -9.649,12.602 -13.555,19.289 -7.793,13.313 -13.156,27.578 -15.598,42.52 -1.015,6.144 -1.601,12.414 -1.601,18.769 0,2.004 0.16,3.985 0.254,5.949 -0.02,0.106 -0.059,0.254 -0.067,0.348 -1.027,-6.148 -0.187,-37.488 -0.187,-43.855 0,-10.067 1.347,-19.91 3.847,-29.442 1.938,-7.453 4.602,-14.687 7.93,-21.691 8.391,-17.684 20.977,-33.906 36.914,-47.9884 C 235.477,61.5234 293.027,40 357.383,40 c 44.668,0 86.015,10.3906 119.98,28.0273 7.715,4.004 15.047,8.3907 21.934,13.0938 16.844,11.5352 31.101,25.0629 42.082,40.1089 15.906,21.778 24.949,46.731 24.949,73.243 0,5.597 0.488,32.101 -0.051,42.636 -0.097,1.438 0.051,-3.25 0.051,-5.078"
         style="fill:#959596;fill-opacity:1;fill-rule:nonzero;stroke:none"
         id="path78"
         inkscape:connector-curvature="0" /><path
         d="m 808.605,452.789 88.481,0 -8.332,-34.074 -42.41,0 -4.192,-17.902 44.243,0 -7.704,-31.567 -43.668,0 -10.484,-44.851 -45.711,0 29.777,128.394"
         style="fill:#231f20;fill-opacity:1;fill-rule:nonzero;stroke:none"
         id="path80"
         inkscape:connector-curvature="0" /><path
         d="m 909.113,452.789 45.711,0 -29.773,-128.394 -45.711,0 29.773,128.394"
         style="fill:#231f20;fill-opacity:1;fill-rule:nonzero;stroke:none"
         id="path82"
         inkscape:connector-curvature="0" /><path
         d="m 1000.54,391.57 c 14.68,0 24.95,8.668 24.95,20.985 0,6.547 -4.82,9.816 -14.26,9.816 -2.72,0 -4.19,-0.191 -7.13,-0.769 l -6.916,-29.641 c 1.468,-0.195 1.679,-0.391 3.356,-0.391 z m -33.759,60.446 2.938,0.386 c 14.676,1.735 32.921,2.887 42.981,2.887 16.77,0 29.78,-1.926 39.63,-5.965 12.58,-5.199 20.13,-16.554 20.13,-30.222 0,-11.743 -3.98,-22.907 -11.53,-31.571 -6.51,-7.508 -12.37,-11.164 -24.54,-14.82 l -2.93,-0.965 c 1.26,-0.961 1.68,-1.348 2.31,-1.926 3.56,-4.043 14.25,-24.832 23.27,-45.425 l -50.32,0 c -6.5,18.285 -8.39,23.097 -16.986,43.886 l -10.066,-43.886 -44.449,0 29.562,127.621"
         style="fill:#231f20;fill-opacity:1;fill-rule:nonzero;stroke:none"
         id="path84"
         inkscape:connector-curvature="0" /><path
         d="m 1180.97,452.789 110.9,0 -7.74,-37.168 -32.92,0 -21.81,-91.226 -45.71,0 21.81,91.226 -35.68,0 11.15,37.168"
         style="fill:#231f20;fill-opacity:1;fill-rule:nonzero;stroke:none"
         id="path86"
         inkscape:connector-curvature="0" /><path
         d="m 1250.49,336.555 c 0.99,0 1.56,0.476 1.56,1.383 0,0.863 -0.52,1.335 -1.51,1.335 -0.22,0 -0.26,0 -0.48,-0.043 l 0,-2.628 c 0.17,-0.047 0.26,-0.047 0.43,-0.047 z m -4,5.347 c 0.56,0.043 0.64,0.082 1.76,0.172 1.12,0.086 1.6,0.129 2.07,0.129 3.67,0 5.47,-1.422 5.47,-4.137 0,-1.636 -0.68,-2.628 -2.15,-3.191 l -0.17,-0.043 c 0.13,-0.086 0.17,-0.129 0.21,-0.215 0.39,-0.344 1.68,-2.285 2.76,-4.051 l -4.18,0 c -0.86,1.594 -1.12,2.028 -2.2,3.836 l 0,-3.836 -3.57,0 0,11.336 z m 4.31,-15.472 c 5.43,0 9.78,4.351 9.78,9.738 0,5.43 -4.35,9.785 -9.78,9.785 -5.39,0 -9.74,-4.355 -9.74,-9.742 0,-5.473 4.31,-9.781 9.74,-9.781 z m 0,20.902 c 6.16,0 11.16,-4.961 11.16,-11.121 0,-6.203 -4.96,-11.16 -11.16,-11.16 -6.25,0 -11.12,4.871 -11.12,11.16 0,6.207 4.91,11.121 11.12,11.121"
         style="fill:#231f20;fill-opacity:1;fill-rule:nonzero;stroke:none"
         id="path88"
         inkscape:connector-curvature="0" /><path
         d="m 1063.54,327.656 c 12.85,-3.816 26.9,-5.957 40.03,-5.957 17.82,0 31.45,4.039 43.19,12.512 13,9.238 21.39,23.48 21.39,36.379 0,8.664 -3.77,16.555 -10.48,22.14 -5.24,4.231 -10.7,7.508 -21.81,12.704 l -9.01,4.234 c -2.94,1.539 -4.41,3.078 -4.41,4.812 0,4.622 5.87,8.083 13.84,8.083 5.96,0 13.07,-1.731 26.64,-6.172 l 9.37,34.757 c -10.15,2.758 -20.05,4.141 -29.93,4.141 -37.32,0 -66.05,-20.402 -66.05,-46.777 0,-13.856 9.23,-23.676 32.29,-34.457 10.9,-5 12.79,-6.352 12.79,-9.817 0,-5.195 -5.66,-8.468 -14.88,-8.468 -8.18,0 -18.66,2.503 -32.92,7.699 l -0.02,-0.004 -10.03,-35.809"
         style="fill:#231f20;fill-opacity:1;fill-rule:nonzero;stroke:none"
         id="path90"
         inkscape:connector-curvature="0" /></g></g></svg>