<?xml version="1.0" encoding="UTF-8" standalone="no"?>
<!-- Created with Inkscape (http://www.inkscape.org/) -->

<svg
   xmlns:dc="http://purl.org/dc/elements/1.1/"
   xmlns:cc="http://creativecommons.org/ns#"
   xmlns:rdf="http://www.w3.org/1999/02/22-rdf-syntax-ns#"
   xmlns:svg="http://www.w3.org/2000/svg"
   xmlns="http://www.w3.org/2000/svg"
   xmlns:sodipodi="http://sodipodi.sourceforge.net/DTD/sodipodi-0.dtd"
   xmlns:inkscape="http://www.inkscape.org/namespaces/inkscape"
   id="svg2"
   version="1.1"
   inkscape:version="0.91 r13725"
   xml:space="preserve"
   width="223.25"
   height="56.4375"
   viewBox="0 0 223.25 56.4375"
   sodipodi:docname="FTC.svg"><metadata
     id="metadata8"><rdf:RDF><cc:Work
         rdf:about=""><dc:format>image/svg+xml</dc:format><dc:type
           rdf:resource="http://purl.org/dc/dcmitype/StillImage" /><dc:title></dc:title></cc:Work></rdf:RDF></metadata><defs
     id="defs6" /><sodipodi:namedview
     pagecolor="#ffffff"
     bordercolor="#666666"
     borderopacity="1"
     objecttolerance="10"
     gridtolerance="10"
     guidetolerance="10"
     inkscape:pageopacity="0"
     inkscape:pageshadow="2"
     inkscape:window-width="640"
     inkscape:window-height="480"
     id="namedview4"
     showgrid="false"
     inkscape:zoom="1.5856663"
     inkscape:cx="111.625"
     inkscape:cy="28.21875"
     inkscape:window-x="0"
     inkscape:window-y="0"
     inkscape:window-maximized="0"
     inkscape:current-layer="g10" /><g
     id="g10"
     inkscape:groupmode="layer"
     inkscape:label="ink_ext_XXXXXX"
     transform="matrix(1.25,0,0,-1.25,0,56.4375)"><g
       id="g12"
       transform="scale(0.1,0.1)"><path
         d="m 886.641,255.859 -37.286,0 0,-96.953 -32.539,0 0,96.953 -37.285,0 0,28.008 107.11,0 0,-28.008"
         style="fill:#f46d1b;fill-opacity:1;fill-rule:nonzero;stroke:none"
         id="path14"
         inkscape:connector-curvature="0" /><path
         d="m 890.488,283.867 99.59,0 0,-26.074 -67.031,0 0,-21.875 61.25,0 0,-25.215 -61.25,0 0,-23.789 68.789,0 0,-28.008 -101.348,0 0,124.961"
         style="fill:#f46d1b;fill-opacity:1;fill-rule:nonzero;stroke:none"
         id="path16"
         inkscape:connector-curvature="0" /><path
         d="m 1082.83,239.238 c -1.74,12.598 -11.54,19.258 -25.19,19.258 -21,0 -29.07,-18.555 -29.07,-37.109 0,-18.555 8.07,-37.11 29.07,-37.11 15.21,0 23.98,8.75 25.19,23.106 l 32.56,0 c -1.76,-32.207 -25.37,-51.113 -57.05,-51.113 -37.81,0 -62.305,28.886 -62.305,65.117 0,36.23 24.495,65.097 62.305,65.097 26.95,0 56.17,-17.148 57.05,-47.246 l -32.56,0"
         style="fill:#f46d1b;fill-opacity:1;fill-rule:nonzero;stroke:none"
         id="path18"
         inkscape:connector-curvature="0" /><path
         d="m 1121.86,283.867 32.55,0 0,-45.508 42.88,0 0,45.508 32.55,0 0,-124.961 -32.55,0 0,51.446 -42.88,0 0,-51.446 -32.55,0 0,124.961"
         style="fill:#f46d1b;fill-opacity:1;fill-rule:nonzero;stroke:none"
         id="path20"
         inkscape:connector-curvature="0" /><path
         d="m 866.348,82.9688 c -1.758,12.5976 -11.563,19.2582 -25.215,19.2582 -20.996,0 -29.043,-18.5551 -29.043,-37.1098 0,-18.5547 8.047,-37.1094 29.043,-37.1094 15.234,0 23.984,8.75 25.215,23.1055 l 32.539,0 C 897.148,18.9063 873.516,0 841.836,0 c -37.793,0 -62.305,28.8867 -62.305,65.1172 0,36.2308 24.512,65.0978 62.305,65.0978 26.953,0 56.191,-17.149 57.051,-47.2462 l -32.539,0"
         style="fill:#f46d1b;fill-opacity:1;fill-rule:nonzero;stroke:none"
         id="path22"
         inkscape:connector-curvature="0" /><path
         d="m 905.371,127.598 32.539,0 0,-45.5082 42.891,0 0,45.5082 32.559,0 0,-124.96128 -32.559,0 0,51.44528 -42.891,0 0,-51.44528 -32.539,0 0,124.96128"
         style="fill:#f46d1b;fill-opacity:1;fill-rule:nonzero;stroke:none"
         id="path24"
         inkscape:connector-curvature="0" /><path
         d="m 1060.96,49.1797 28.36,0 -13.83,43.7695 -0.35,0 -14.18,-43.7695 z m -2.09,78.4183 33.06,0 46.74,-124.96128 -33.96,0 -7.7,22.40238 -43.57,0 -7.87,-22.40238 -33.44,0 46.74,124.96128"
         style="fill:#f46d1b;fill-opacity:1;fill-rule:nonzero;stroke:none"
         id="path26"
         inkscape:connector-curvature="0" /><path
         d="m 1137.62,127.598 32.54,0 0,-96.9535 58.28,0 0,-28.00778 -90.82,0 0,124.96128"
         style="fill:#f46d1b;fill-opacity:1;fill-rule:nonzero;stroke:none"
         id="path28"
         inkscape:connector-curvature="0" /><path
         d="m 1234.04,127.598 32.56,0 0,-96.9535 58.28,0 0,-28.00778 -90.84,0 0,124.96128"
         style="fill:#f46d1b;fill-opacity:1;fill-rule:nonzero;stroke:none"
         id="path30"
         inkscape:connector-curvature="0" /><path
         d="m 1330.47,127.598 99.59,0 0,-26.075 -67.03,0 0,-21.8746 61.25,0 0,-25.2148 -61.25,0 0,-23.7891 68.79,0 0,-28.00778 -101.35,0 0,124.96128"
         style="fill:#f46d1b;fill-opacity:1;fill-rule:nonzero;stroke:none"
         id="path32"
         inkscape:connector-curvature="0" /><path
         d="m 1439.51,127.598 33.42,0 43.42,-77.0121 0.35,0 0,77.0121 30.62,0 0,-124.96128 -33.43,0 -43.4,77.87108 -0.35,0 0,-77.87108 -30.63,0 0,124.96128"
         style="fill:#f46d1b;fill-opacity:1;fill-rule:nonzero;stroke:none"
         id="path34"
         inkscape:connector-curvature="0" /><path
         d="m 1674.39,2.63672 -21.01,0 -1.92,13.65238 C 1642.89,4.19922 1628.18,0 1616.62,0 c -37.79,0 -62.3,28.8867 -62.3,65.1172 0,36.2308 24.51,65.0978 62.3,65.0978 25.92,0 53.56,-13.828 56.54,-45.1564 l -32.55,0 c -1.06,10.6836 -11.55,17.1684 -24.67,17.1684 -21.02,0 -29.07,-18.5551 -29.07,-37.1098 0,-18.5547 8.05,-37.1094 29.07,-37.1094 16.09,0 26.95,7.5195 28.69,18.9063 l -22.76,0 0,24.1406 52.52,0 0,-68.41798"
         style="fill:#f46d1b;fill-opacity:1;fill-rule:nonzero;stroke:none"
         id="path36"
         inkscape:connector-curvature="0" /><path
         d="m 1684.71,127.598 99.59,0 0,-26.075 -67.05,0 0,-21.8746 61.27,0 0,-25.2148 -61.27,0 0,-23.7891 68.79,0 0,-28.00778 -101.33,0 0,124.96128"
         style="fill:#f46d1b;fill-opacity:1;fill-rule:nonzero;stroke:none"
         id="path38"
         inkscape:connector-curvature="0" /><path
         d="m 357.383,305.406 c 13.086,0 25.781,-1.195 37.91,-3.41 l 28.828,30.059 c -20.164,6.98 -42.812,10.894 -66.738,10.894 -40.684,0 -77.621,-11.336 -105.016,-29.808 L 277.5,289.328 c 23.238,10.188 50.582,16.078 79.883,16.078"
         style="fill:#959596;fill-opacity:1;fill-rule:nonzero;stroke:none"
         id="path40"
         inkscape:connector-curvature="0" /><path
         d="m 357.383,342.949 c 23.926,0 46.574,-3.914 66.738,-10.894 l 31.359,32.636 c -29.257,11.536 -62.628,18.086 -98.097,18.086 -52.856,0 -101.09,-14.543 -137.899,-38.484 l 32.883,-31.152 c 27.395,18.472 64.332,29.808 105.016,29.808"
         style="fill:#ffffff;fill-opacity:1;fill-rule:nonzero;stroke:none"
         id="path42"
         inkscape:connector-curvature="0" /><path
         d="m 206.832,215.234 c 2.637,10.774 7.504,20.996 14.219,30.442 l -12.633,12.765 c -2.5,-7.851 -3.887,-16.031 -3.887,-24.449 0,-6.394 0.801,-12.664 2.301,-18.758"
         style="fill:#959596;fill-opacity:1;fill-rule:nonzero;stroke:none"
         id="path44"
         inkscape:connector-curvature="0" /><path
         d="m 113.496,144.59 -5.301,-27.481 52.762,22.715 c -3.328,7.004 -3.984,16.133 -5.906,23.555 L 113.496,144.59"
         style="fill:#959596;fill-opacity:1;fill-rule:nonzero;stroke:none"
         id="path46"
         inkscape:connector-curvature="0" /><path
         d="M 76.3672,443.574 0,25.4023 36.1172,22.4609 111.734,446.715 76.3672,443.574"
         style="fill:#959596;fill-opacity:1;fill-rule:nonzero;stroke:none"
         id="path48"
         inkscape:connector-curvature="0" /><path
         d="m 333.164,202.941 0,33.805 -55.469,52.582 -25.121,23.813 L 219.68,344.293 111.605,446.719 35.9688,22.4609 196.016,92.8125 C 180.082,106.895 168.789,121.906 160.402,139.59 l -52.101,-22.363 5.226,27.351 33.758,175.969 2.817,14.762 27.878,-28.067 35.868,-36.121 15.39,-15.516 63.313,-54.531 -61.453,-28.172 c 15.965,-15.949 34.871,-29.98 60.351,-37.922 l 76.676,34.434 -34.961,33.527"
         style="fill:#ed1c24;fill-opacity:1;fill-rule:nonzero;stroke:none"
         id="path50"
         inkscape:connector-curvature="0" /><path
         d="m 507.93,215.234 c 1.496,6.094 2.316,12.364 2.316,18.758 0,18.899 -6.906,36.715 -18.801,52.211 l -18.203,-18.859 c 17.492,-14.551 29.903,-32.461 34.688,-52.11"
         style="fill:#959596;fill-opacity:1;fill-rule:nonzero;stroke:none"
         id="path52"
         inkscape:connector-curvature="0" /><path
         d="m 542.16,36.25 -43.144,41.4453 c -6.907,-4.7148 -14.278,-9.082 -21.993,-13.0937 L 542.16,2.0625 743.027,211.27 742.805,245.156 542.16,36.25"
         style="fill:#959596;fill-opacity:1;fill-rule:nonzero;stroke:none"
         id="path54"
         inkscape:connector-curvature="0" /><path
         d="m 395.781,176.758 -35.527,34.121 -27.188,25.969 -0.097,-33.907 38.222,-36.718 36.543,-35.102 c 9.289,2.309 18.164,5.238 26.524,8.703 l -38.477,36.934"
         style="fill:#959596;fill-opacity:1;fill-rule:nonzero;stroke:none"
         id="path56"
         inkscape:connector-curvature="0" /><path
         d="m 535.449,365.961 -28.594,-29.77 -31.542,-32.867 -21.504,-22.386 -40.743,-42.43 17.071,-16.391 43.351,45.149 18.133,18.879 33.203,34.578 10.625,11.062 110.449,-105.875 17.09,17.735 -127.539,122.316"
         style="fill:#959596;fill-opacity:1;fill-rule:nonzero;stroke:none"
         id="path58"
         inkscape:connector-curvature="0" /><path
         d="m 524.824,320.723 -33.203,-34.578 c 11.875,-15.489 18.625,-33.254 18.625,-52.153 0,-6.394 -0.82,-12.664 -2.316,-18.758 -3.867,-15.898 -12.578,-30.617 -25.008,-43.359 -12.727,-13.047 -29.336,-24.012 -48.664,-32.051 -8.36,-3.465 -17.235,-6.394 -26.524,-8.703 -15.761,-3.902 -32.695,-6.07 -50.351,-6.07 -21.727,0 -42.379,3.242 -61.094,9.07 -25.492,7.942 -47.351,20.695 -63.324,36.641 -5.832,5.812 -10.863,12.062 -15.02,18.652 -5.117,8.137 -8.902,16.777 -11.113,25.82 -1.5,6.094 -2.301,12.364 -2.301,18.758 0,8.418 1.387,16.598 3.887,24.449 l -38.141,38.61 c -13.968,-20.703 -21.847,-44.043 -21.847,-68.77 0,-6.355 0.59,-12.625 1.593,-18.769 2.45,-14.942 7.809,-29.207 15.602,-42.52 3.906,-6.687 8.449,-13.125 13.555,-19.289 13.422,-16.187 30.722,-30.398 51,-41.922 35.215,-20.0388 79.312,-31.9919 127.203,-31.9919 33.515,0 65.156,5.8398 93.203,16.2031 8.516,3.1445 16.691,6.707 24.504,10.6528 18.086,9.152 34.129,20.332 47.527,33.125 22.481,21.464 37.481,47.414 42.129,75.742 1.016,6.144 1.582,12.414 1.582,18.769 0,34.672 -15.43,66.664 -41.504,92.442"
         style="fill:#ffffff;fill-opacity:1;fill-rule:nonzero;stroke:none"
         id="path60"
         inkscape:connector-curvature="0" /><path
         d="m 395.605,176.504 38.34,-36.816 c 19.297,8.046 36.055,18.898 48.801,31.933 l -52.57,50.469 -17.059,16.387 40.516,42.203 21.484,22.386 31.563,32.875 28.593,29.774 L 662.512,243.551 645.43,225.762 541.191,117.219 C 530.215,102.18 515.977,88.8281 499.141,77.3047 l 42.832,-41.3281 200.871,209.1994 -209.199,200.859 -78.352,-81.59 -31.348,-32.66 -28.867,-30.047 -62.012,-64.89 62.539,-60.344"
         style="fill:#1c63b7;fill-opacity:1;fill-rule:nonzero;stroke:none"
         id="path62"
         inkscape:connector-curvature="0" /><path
         d="m 218.809,188.391 c 0,0 1,-1.653 1.117,-1.848 3.066,-4.871 7.285,-9.336 11.277,-13.801 l 62.488,28.891 -143.609,133.734 -3.914,-20.687 112.664,-111.555 -40.023,-14.734"
         style="fill:#959596;fill-opacity:1;fill-rule:nonzero;stroke:none"
         id="path64"
         inkscape:connector-curvature="0" /><path
         d="m 566.328,228.281 c 0,-6.355 -0.566,-12.625 -1.582,-18.769 -4.648,-28.328 -19.648,-54.278 -42.129,-75.742 -13.398,-12.793 -29.441,-23.973 -47.527,-33.125 -7.813,-3.9458 -15.988,-7.5083 -24.504,-10.6528 -28.047,-10.3633 -59.688,-16.2031 -93.203,-16.2031 -47.891,0 -91.988,11.9531 -127.203,31.9919 -20.278,11.524 -37.578,25.735 -51,41.922 -5.106,6.164 -9.649,12.602 -13.555,19.289 -7.793,13.313 -13.152,27.578 -15.602,42.52 -1.003,6.144 -1.593,12.414 -1.593,18.769 0,2.004 0.156,3.985 0.254,5.949 -0.02,0.106 -0.059,0.254 -0.071,0.348 -1.019,-6.148 -0.183,-37.488 -0.183,-43.855 0,-10.067 1.347,-19.91 3.84,-29.442 1.945,-7.453 4.605,-14.687 7.937,-21.691 8.387,-17.684 20.977,-33.906 36.918,-47.9884 C 235.473,57.7734 293.027,36.25 357.383,36.25 c 44.668,0 86.015,10.3906 119.98,28.0273 7.715,4.004 15.051,8.3907 21.934,13.0938 16.848,11.5352 31.105,25.0629 42.082,40.1089 15.906,21.778 24.949,46.731 24.949,73.243 0,5.597 0.488,32.101 -0.047,42.636 -0.097,1.438 0.047,-3.25 0.047,-5.078"
         style="fill:#959596;fill-opacity:1;fill-rule:nonzero;stroke:none"
         id="path66"
         inkscape:connector-curvature="0" /><path
         d="m 806.75,449.039 88.48,0 -8.332,-34.074 -42.41,0 -4.191,-17.902 44.242,0 -7.703,-31.567 -43.668,0 -10.484,-44.851 -45.707,0 29.773,128.394"
         style="fill:#231f20;fill-opacity:1;fill-rule:nonzero;stroke:none"
         id="path68"
         inkscape:connector-curvature="0" /><path
         d="m 907.262,449.039 45.707,0 -29.774,-128.394 -45.711,0 29.778,128.394"
         style="fill:#231f20;fill-opacity:1;fill-rule:nonzero;stroke:none"
         id="path70"
         inkscape:connector-curvature="0" /><path
         d="m 998.684,387.82 c 14.676,0 24.956,8.668 24.956,20.985 0,6.547 -4.83,9.816 -14.26,9.816 -2.73,0 -4.19,-0.191 -7.13,-0.769 l -6.922,-29.641 c 1.469,-0.195 1.68,-0.391 3.356,-0.391 z m -33.754,60.446 2.933,0.386 c 14.676,1.735 32.917,2.887 42.987,2.887 16.77,0 29.77,-1.926 39.63,-5.965 12.57,-5.199 20.12,-16.554 20.12,-30.222 0,-11.743 -3.98,-22.907 -11.53,-31.571 -6.5,-7.508 -12.37,-11.164 -24.53,-14.82 l -2.94,-0.965 c 1.26,-0.961 1.68,-1.348 2.31,-1.926 3.56,-4.043 14.26,-24.832 23.28,-45.425 l -50.33,0 c -6.5,18.285 -8.383,23.097 -16.981,43.886 l -10.066,-43.886 -44.45,0 29.567,127.621"
         style="fill:#231f20;fill-opacity:1;fill-rule:nonzero;stroke:none"
         id="path72"
         inkscape:connector-curvature="0" /><path
         d="m 1179.11,449.039 110.91,0 -7.75,-37.168 -32.91,0 -21.81,-91.226 -45.71,0 21.81,91.226 -35.68,0 11.14,37.168"
         style="fill:#231f20;fill-opacity:1;fill-rule:nonzero;stroke:none"
         id="path74"
         inkscape:connector-curvature="0" /><path
         d="m 1248.64,332.805 c 0.99,0 1.55,0.476 1.55,1.383 0,0.863 -0.52,1.335 -1.51,1.335 -0.21,0 -0.26,0 -0.47,-0.043 l 0,-2.628 c 0.17,-0.047 0.26,-0.047 0.43,-0.047 z m -4.01,5.347 c 0.56,0.043 0.65,0.082 1.77,0.172 1.12,0.086 1.59,0.129 2.07,0.129 3.66,0 5.47,-1.422 5.47,-4.137 0,-1.636 -0.69,-2.628 -2.16,-3.191 l -0.17,-0.043 c 0.13,-0.086 0.17,-0.129 0.22,-0.215 0.39,-0.344 1.68,-2.285 2.76,-4.051 l -4.18,0 c -0.87,1.594 -1.12,2.028 -2.2,3.836 l 0,-3.836 -3.58,0 0,11.336 z m 4.31,-15.472 c 5.43,0 9.79,4.351 9.79,9.738 0,5.43 -4.36,9.785 -9.79,9.785 -5.39,0 -9.74,-4.355 -9.74,-9.742 0,-5.473 4.31,-9.781 9.74,-9.781 z m 0,20.902 c 6.16,0 11.16,-4.961 11.16,-11.121 0,-6.203 -4.95,-11.16 -11.16,-11.16 -6.25,0 -11.12,4.871 -11.12,11.16 0,6.207 4.92,11.121 11.12,11.121"
         style="fill:#231f20;fill-opacity:1;fill-rule:nonzero;stroke:none"
         id="path76"
         inkscape:connector-curvature="0" /><path
         d="m 1061.68,323.906 c 12.85,-3.816 26.91,-5.957 40.04,-5.957 17.82,0 31.45,4.039 43.19,12.512 13,9.238 21.39,23.48 21.39,36.379 0,8.664 -3.78,16.555 -10.49,22.14 -5.24,4.231 -10.69,7.508 -21.8,12.704 l -9.02,4.234 c -2.94,1.539 -4.4,3.078 -4.4,4.812 0,4.622 5.87,8.083 13.84,8.083 5.96,0 13.06,-1.731 26.64,-6.172 l 9.37,34.757 c -10.16,2.758 -20.05,4.141 -29.94,4.141 -37.32,0 -66.04,-20.402 -66.04,-46.777 0,-13.856 9.22,-23.676 32.29,-34.457 10.9,-5 12.79,-6.352 12.79,-9.817 0,-5.195 -5.66,-8.468 -14.89,-8.468 -8.18,0 -18.66,2.503 -32.92,7.699 l -0.02,-0.004 -10.03,-35.809"
         style="fill:#231f20;fill-opacity:1;fill-rule:nonzero;stroke:none"
         id="path78"
         inkscape:connector-curvature="0" /></g></g></svg>