<?xml version="1.0" encoding="UTF-8" standalone="no"?>
<!-- Created with Inkscape (http://www.inkscape.org/) -->

<svg
   xmlns:dc="http://purl.org/dc/elements/1.1/"
   xmlns:cc="http://creativecommons.org/ns#"
   xmlns:rdf="http://www.w3.org/1999/02/22-rdf-syntax-ns#"
   xmlns:svg="http://www.w3.org/2000/svg"
   xmlns="http://www.w3.org/2000/svg"
   xmlns:sodipodi="http://sodipodi.sourceforge.net/DTD/sodipodi-0.dtd"
   xmlns:inkscape="http://www.inkscape.org/namespaces/inkscape"
   id="svg2"
   version="1.1"
   inkscape:version="0.91 r13725"
   xml:space="preserve"
   width="1276.75"
   height="487.67374"
   viewBox="0 0 1276.75 487.67374"
   sodipodi:docname="VEX.svg"><metadata
     id="metadata8"><rdf:RDF><cc:Work
         rdf:about=""><dc:format>image/svg+xml</dc:format><dc:type
           rdf:resource="http://purl.org/dc/dcmitype/StillImage" /><dc:title></dc:title></cc:Work></rdf:RDF></metadata><defs
     id="defs6"><clipPath
       clipPathUnits="userSpaceOnUse"
       id="clipPath16"><path
         d="m 0,390.139 1021.396,0 L 1021.396,0 0,0 0,390.139 Z"
         id="path18"
         inkscape:connector-curvature="0" /></clipPath></defs><sodipodi:namedview
     pagecolor="#ffffff"
     bordercolor="#666666"
     borderopacity="1"
     objecttolerance="10"
     gridtolerance="10"
     guidetolerance="10"
     inkscape:pageopacity="0"
     inkscape:pageshadow="2"
     inkscape:window-width="640"
     inkscape:window-height="453"
     id="namedview4"
     showgrid="false"
     inkscape:zoom="0.24828667"
     inkscape:cx="638.375"
     inkscape:cy="243.83687"
     inkscape:window-x="1799"
     inkscape:window-y="338"
     inkscape:window-maximized="0"
     inkscape:current-layer="g10" /><g
     id="g10"
     inkscape:groupmode="layer"
     inkscape:label="VEX-Solo"
     transform="matrix(1.25,0,0,-1.25,0,487.67375)"><g
       id="g12"><g
         id="g14"
         clip-path="url(#clipPath16)"><g
           id="g20"
           transform="translate(888.9384,221.316)"><path
             d="m 0,0 c -0.695,0 -1.37,-0.213 -1.949,-0.614 0,0 -76.98,-53.521 -80.685,-56.1 -3.712,2.569 -81.082,56.105 -81.082,56.105 -0.573,0.396 -1.249,0.609 -1.944,0.609 l -71.233,0 c -1.503,0 -2.828,-0.98 -3.269,-2.411 -0.097,-0.33 -0.148,-0.665 -0.148,-1 0,-1.112 0.549,-2.178 1.498,-2.823 0,0 107.631,-72.852 115.444,-78.142 -7.879,-5.274 -125.267,-83.911 -125.267,-83.911 -0.96,-0.65 -1.508,-1.721 -1.508,-2.833 0,-0.335 0.046,-0.67 0.153,-0.995 0.426,-1.436 1.751,-2.416 3.259,-2.416 l 72.796,0 c 0.701,0 1.376,0.208 1.939,0.609 0,0 85.62,59.27 89.351,61.854 3.727,-2.604 88.569,-61.849 88.569,-61.849 0.574,-0.401 1.254,-0.614 1.955,-0.614 l 71.624,0 c 1.502,0 2.827,0.98 3.259,2.411 0.106,0.33 0.152,0.665 0.152,1 0,1.112 -0.548,2.178 -1.508,2.822 0,0 -116.631,78.622 -124.49,83.917 7.813,5.264 115.835,78.142 115.835,78.142 0.959,0.645 1.503,1.716 1.503,2.828 0,0.335 -0.051,0.67 -0.147,0.995 C 73.665,-0.98 72.34,0 70.847,0 L 0,0 Z"
             style="fill:#a4a3a7;fill-opacity:1;fill-rule:nonzero;stroke:none"
             id="path22"
             inkscape:connector-curvature="0" /></g><g
           id="g24"
           transform="translate(328.8774,221.316)"><path
             d="m 0,0 c -1.02,0 -1.99,-0.462 -2.64,-1.249 0,0 -101.656,-124.343 -106.732,-130.551 -5.016,6.249 -104.794,130.521 -104.794,130.521 -0.65,0.812 -1.624,1.279 -2.66,1.279 l -59.816,0 c -1.325,0 -2.523,-0.762 -3.086,-1.954 -0.564,-1.199 -0.386,-2.605 0.451,-3.625 l 138.126,-167.714 c 0.645,-0.787 1.614,-1.238 2.635,-1.238 l 58.242,0 c 1.01,0 1.97,0.441 2.619,1.223 L 62.441,-5.599 c 0.847,1.015 1.035,2.431 0.472,3.629 C 62.349,-0.766 61.146,0 59.821,0 L 0,0 Z"
             style="fill:#a4a3a7;fill-opacity:1;fill-rule:nonzero;stroke:none"
             id="path26"
             inkscape:connector-curvature="0" /></g><g
           id="g28"
           transform="translate(423.4166,221.3465)"><path
             d="m 0,0 c -6.853,12.595 -11.011,29.266 -11.011,47.364 0,38.197 19.138,70.278 42.439,70.278 l 147.406,0 c 7.853,0 14.305,-10.696 14.305,-23.682 0,-12.985 -6.452,-23.681 -14.305,-23.681 l -147.406,0 c -7.848,0 -13.848,-10.691 -13.848,-22.915 0,-12.22 5.553,-24.063 13.848,-24.063 l 147.406,0 c 7.853,0 14.305,-10.529 14.305,-23.321 l 0,-0.01 c 0,-12.798 -6.452,-23.327 -14.305,-23.327 l -147.406,0 c -8.295,0 -13.848,-11.843 -13.848,-24.057 0,-12.229 6,-22.915 13.848,-22.915 l 147.406,0 c 7.853,0 14.305,-10.696 14.305,-23.677 0,-12.991 -6.452,-23.687 -14.305,-23.687 l -147.406,0 c -23.301,0 -42.439,32.084 -42.439,70.279 0,18.092 4.158,34.763 11.011,47.363 L 0,0 Z"
             style="fill:#ef4338;fill-opacity:1;fill-rule:nonzero;stroke:none"
             id="path30"
             inkscape:connector-curvature="0" /></g><g
           id="g32"
           transform="translate(984.9193,56.76)"><path
             d="M 0,0 2.421,0 C 3.579,0 4.366,0.173 4.787,0.518 5.208,0.863 5.422,1.32 5.422,1.889 5.422,2.254 5.32,2.584 5.117,2.873 4.914,3.163 4.63,3.376 4.269,3.518 3.909,3.66 3.244,3.731 2.269,3.731 L 0,3.731 0,0 Z m -1.995,-6.96 0,12.367 4.249,0 C 3.706,5.407 4.756,5.295 5.406,5.066 6.056,4.838 6.574,4.437 6.96,3.868 7.345,3.3 7.539,2.696 7.539,2.056 7.539,1.152 7.214,0.365 6.569,-0.305 5.924,-0.975 5.071,-1.35 4.005,-1.432 4.442,-1.614 4.792,-1.833 5.056,-2.086 5.554,-2.574 6.163,-3.391 6.884,-4.538 l 1.507,-2.422 -2.436,0 -1.097,1.95 c -0.863,1.533 -1.558,2.492 -2.086,2.878 -0.366,0.284 -0.899,0.426 -1.6,0.426 l -1.172,0 0,-5.254 -1.995,0 z M 3.046,8.985 C 1.432,8.985 -0.142,8.574 -1.67,7.747 -3.198,6.919 -4.391,5.736 -5.254,4.198 -6.117,2.66 -6.549,1.056 -6.549,-0.609 c 0,-1.655 0.421,-3.239 1.269,-4.757 0.848,-1.518 2.036,-2.7 3.559,-3.548 1.523,-0.848 3.112,-1.274 4.767,-1.274 1.655,0 3.244,0.426 4.766,1.274 1.524,0.848 2.706,2.03 3.549,3.548 0.843,1.518 1.264,3.102 1.264,4.757 0,1.665 -0.431,3.269 -1.289,4.807 C 10.478,5.736 9.285,6.919 7.752,7.747 6.218,8.574 4.65,8.985 3.046,8.985 m 0,1.904 c 1.929,0 3.812,-0.492 5.65,-1.482 1.838,-0.99 3.269,-2.406 4.295,-4.249 1.025,-1.843 1.538,-3.767 1.538,-5.767 0,-1.98 -0.508,-3.884 -1.518,-5.711 -1.01,-1.828 -2.427,-3.244 -4.249,-4.254 -1.823,-1.01 -3.726,-1.518 -5.716,-1.518 -1.99,0 -3.899,0.508 -5.721,1.518 -1.823,1.01 -3.239,2.426 -4.254,4.254 -1.016,1.827 -1.523,3.731 -1.523,5.711 0,2 0.512,3.924 1.543,5.767 1.03,1.843 2.467,3.259 4.305,4.249 1.837,0.99 3.721,1.482 5.65,1.482"
             style="fill:#a4a3a7;fill-opacity:1;fill-rule:nonzero;stroke:none"
             id="path34"
             inkscape:connector-curvature="0" /></g></g></g></g></svg>